<svg width="16" height="24" viewBox="0 0 16 24" fill="none" xmlns="http://www.w3.org/2000/svg">
<path d="M0.318115 22.7252H13.5462" stroke="#616161" stroke-linejoin="round"/>
<path d="M6.19347 17.8986L1.77832 20.3321L2.07817 15.5583L11.33 1.43158C11.3536 1.39506 11.3848 1.36325 11.4216 1.33797C11.4584 1.3127 11.5003 1.29445 11.5447 1.28428C11.5891 1.27411 11.6352 1.27221 11.6804 1.27869C11.7256 1.28518 11.7689 1.29992 11.808 1.32207L15.3323 3.35003C15.3714 3.3721 15.4055 3.40116 15.4326 3.43554C15.4597 3.46992 15.4792 3.50895 15.4901 3.55039C15.501 3.59183 15.5031 3.63487 15.4961 3.67705C15.4892 3.71922 15.4734 3.75971 15.4496 3.79618L6.19347 17.8986Z" stroke="#616161" stroke-linecap="round" stroke-linejoin="round"/>
<path d="M9.85681 3.67863L13.9721 6.03106" stroke="#616161" stroke-linecap="round" stroke-linejoin="round"/>
<path d="M2.07812 15.5463L6.19343 17.8987" stroke="#616161" stroke-linecap="round" stroke-linejoin="round"/>
</svg>
